<svg xmlns="http://www.w3.org/2000/svg" xmlns:xlink="http://www.w3.org/1999/xlink" width="45" height="40" version="1.1" viewBox="0 0 45 40"><title>lsx-bd-placeholder-icon-grey</title><desc>Created with Sketch.</desc><g id="Bizz-Directory" fill="none" fill-rule="evenodd" stroke="none" stroke-width="1"><g id="Directory-Archive---List" fill="#F7AE00" fill-rule="nonzero" transform="translate(-620.000000, -409.000000)"><g id="lsx-bd-placeholder-icon-grey" transform="translate(620.000000, 409.000000)"><g id="Group"><path id="Path" d="M18.616188,11.8537859 C18.616188,12.767624 18.616188,13.6762402 18.616188,14.5900783 C18.616188,16.7624021 18.616188,18.9347258 18.616188,21.1070496 C18.616188,23.7336815 18.616188,26.3603133 18.616188,28.9817232 C18.616188,31.2637076 18.616188,33.5509138 18.616188,35.8328982 C18.616188,36.5796345 18.616188,37.3263708 18.616188,38.073107 C18.616188,38.4281984 18.5953003,38.7832898 18.616188,39.1383812 C18.616188,39.154047 18.616188,39.1697128 18.616188,39.1853786 C18.8772846,38.924282 19.1383812,38.6631854 19.3994778,38.4020888 C18.1253264,38.4020888 16.845953,38.4020888 15.5718016,38.4020888 C13.5456919,38.4020888 11.5195822,38.4020888 9.49869452,38.4020888 C9.03394256,38.4020888 8.56396867,38.4020888 8.09921671,38.4020888 C8.36031332,38.6631854 8.62140992,38.924282 8.88250653,39.1853786 C8.86684073,38.5221932 8.845953,37.8590078 8.83028721,37.1958225 C8.78851175,35.6031332 8.74151436,34.0052219 8.6997389,32.4125326 C8.64751958,30.4751958 8.59530026,28.5326371 8.54308094,26.5953003 C8.49608355,24.924282 8.45430809,23.2584856 8.4073107,21.5874674 C8.38642298,20.7832898 8.41253264,19.9530026 8.33942559,19.1488251 C8.33942559,19.1383812 8.33942559,19.1279373 8.33942559,19.1122715 C8.20887728,19.3368146 8.07832898,19.5613577 7.95300261,19.7911227 C9.2845953,18.9712794 10.6214099,18.156658 11.9530026,17.3368146 C14.078329,16.0313316 16.2088773,14.7310705 18.3342037,13.4255875 C18.8250653,13.1279373 19.310705,12.8250653 19.8015666,12.5274151 C20.1618799,12.308094 20.2976501,11.8276762 20.0835509,11.4569191 C19.8746736,11.0966057 19.3733681,10.9556136 19.0130548,11.1749347 C17.6814621,11.9947781 16.3446475,12.8093995 15.0130548,13.6292428 C12.8877285,14.9347258 10.7571802,16.2349869 8.63185379,17.54047 C8.14099217,17.8381201 7.65535248,18.1409922 7.16449086,18.4386423 C6.93472585,18.5796345 6.76762402,18.8355091 6.77806789,19.1174935 C6.79373368,19.7806789 6.81462141,20.4438642 6.83028721,21.1070496 C6.87206266,22.6997389 6.91906005,24.2976501 6.96083551,25.8903394 C7.01305483,27.8276762 7.06527415,29.770235 7.11749347,31.7075718 C7.16449086,33.3785901 7.20626632,35.0443864 7.25326371,36.7154047 C7.27415144,37.5248042 7.27415144,38.3394256 7.32114883,39.154047 C7.32114883,39.1644909 7.32114883,39.1749347 7.32114883,39.1906005 C7.33159269,39.613577 7.67101828,39.9738903 8.10443864,39.9738903 C9.37859008,39.9738903 10.6579634,39.9738903 11.9321149,39.9738903 C13.9582245,39.9738903 15.9843342,39.9738903 18.0052219,39.9738903 C18.4699739,39.9738903 18.9399478,39.9738903 19.4046997,39.9738903 C19.8276762,39.9738903 20.1879896,39.613577 20.1879896,39.1906005 C20.1879896,38.2767624 20.1879896,37.3681462 20.1879896,36.4543081 C20.1879896,34.2819843 20.1879896,32.1096606 20.1879896,29.9373368 C20.1879896,27.310705 20.1879896,24.6840731 20.1879896,22.0626632 C20.1879896,19.7806789 20.1879896,17.4934726 20.1879896,15.2114883 C20.1879896,14.1096606 20.2193211,13.002611 20.1879896,11.9060052 C20.1879896,11.8903394 20.1879896,11.8746736 20.1879896,11.8590078 C20.1879896,11.4516971 19.8276762,11.0548303 19.4046997,11.075718 C18.9765013,11.0913838 18.616188,11.4151436 18.616188,11.8537859 Z"/><path id="Path" d="M30.5483029,11.8537859 C30.5483029,12.767624 30.5483029,13.6762402 30.5483029,14.5900783 C30.5483029,16.7624021 30.5483029,18.9347258 30.5483029,21.1070496 C30.5483029,23.7336815 30.5483029,26.3603133 30.5483029,28.9817232 C30.5483029,31.2637076 30.5483029,33.5509138 30.5483029,35.8328982 C30.5483029,36.5796345 30.5483029,37.3263708 30.5483029,38.073107 C30.5483029,38.4281984 30.5274151,38.7832898 30.5483029,39.1383812 C30.5483029,39.154047 30.5483029,39.1697128 30.5483029,39.1853786 C30.8093995,38.924282 31.0704961,38.6631854 31.3315927,38.4020888 C29.9843342,38.4020888 28.6370757,38.4020888 27.2898172,38.4020888 C25.154047,38.4020888 23.0130548,38.4020888 20.8772846,38.4020888 C20.386423,38.4020888 19.8903394,38.4020888 19.3994778,38.4020888 C19.6605744,38.6631854 19.921671,38.924282 20.1827676,39.1853786 C20.1827676,38.5221932 20.1827676,37.8590078 20.1827676,37.1906005 C20.1827676,35.5926893 20.1827676,34 20.1827676,32.4020888 C20.1827676,30.4804178 20.1827676,28.5587467 20.1827676,26.6370757 C20.1827676,24.9660574 20.1827676,23.3002611 20.1827676,21.6292428 C20.1827676,20.8198433 20.229765,19.9947781 20.1827676,19.1906005 C20.1827676,19.1801567 20.1827676,19.1697128 20.1827676,19.154047 C20.0522193,19.3785901 19.921671,19.6031332 19.7963446,19.8328982 C21.1436031,19.0078329 22.4908616,18.1827676 23.8328982,17.3577023 C25.9738903,16.0469974 28.1201044,14.7310705 30.2610966,13.4203655 C30.7519582,13.1227154 31.2375979,12.8198433 31.7284595,12.5221932 C32.0887728,12.3028721 32.2245431,11.8224543 32.0104439,11.4516971 C31.8015666,11.0913838 31.3002611,10.9503916 30.9399478,11.1697128 C29.0861619,12.308094 27.227154,13.4412533 25.3733681,14.5796345 C23.2741514,15.8642298 21.154047,17.1227154 19.075718,18.4386423 C18.8146214,18.6057441 18.6318538,18.8250653 18.616188,19.1592689 C18.616188,19.1958225 18.616188,19.2375979 18.616188,19.2793734 C18.616188,19.54047 18.616188,19.7963446 18.616188,20.0574413 C18.616188,21.1436031 18.616188,22.2349869 18.616188,23.3211488 C18.616188,26.5117493 18.616188,29.7075718 18.616188,32.8981723 C18.616188,34.9608355 18.5848564,37.0234987 18.616188,39.0861619 C18.616188,39.1174935 18.616188,39.1488251 18.616188,39.1853786 C18.616188,39.6083551 18.9765013,39.9686684 19.3994778,39.9686684 C20.7467363,39.9686684 22.0939948,39.9686684 23.4412533,39.9686684 C25.5770235,39.9686684 27.7180157,39.9686684 29.8537859,39.9686684 C30.3446475,39.9686684 30.8407311,39.9686684 31.3315927,39.9686684 C31.7545692,39.9686684 32.1148825,39.6083551 32.1148825,39.1853786 C32.1148825,38.2715405 32.1148825,37.3629243 32.1148825,36.4490862 C32.1148825,34.2767624 32.1148825,32.1044386 32.1148825,29.9321149 C32.1148825,27.305483 32.1148825,24.6788512 32.1148825,22.0574413 C32.1148825,19.7754569 32.1148825,17.4882507 32.1148825,15.2062663 C32.1148825,14.1044386 32.1462141,12.997389 32.1148825,11.9007833 C32.1148825,11.8851175 32.1148825,11.8694517 32.1148825,11.8537859 C32.1148825,11.4464752 31.7545692,11.0496084 31.3315927,11.0704961 C30.9086162,11.0913838 30.5483029,11.4151436 30.5483029,11.8537859 Z"/><path id="Path" d="M42.4804178,11.8537859 C42.4804178,12.767624 42.4804178,13.6762402 42.4804178,14.5900783 C42.4804178,16.7624021 42.4804178,18.9347258 42.4804178,21.1070496 C42.4804178,23.7336815 42.4804178,26.3603133 42.4804178,28.9817232 C42.4804178,31.2637076 42.4804178,33.5509138 42.4804178,35.8328982 C42.4804178,36.5796345 42.4804178,37.3263708 42.4804178,38.073107 C42.4804178,38.4281984 42.45953,38.7832898 42.4804178,39.1383812 C42.4804178,39.154047 42.4804178,39.1697128 42.4804178,39.1853786 C42.7415144,38.924282 43.002611,38.6631854 43.2637076,38.4020888 C41.9164491,38.4020888 40.5691906,38.4020888 39.2219321,38.4020888 C37.0861619,38.4020888 34.9451697,38.4020888 32.8093995,38.4020888 C32.3185379,38.4020888 31.8224543,38.4020888 31.3315927,38.4020888 C31.5926893,38.6631854 31.8537859,38.924282 32.1148825,39.1853786 C32.1148825,38.5221932 32.1148825,37.8590078 32.1148825,37.1906005 C32.1148825,35.5926893 32.1148825,34 32.1148825,32.4020888 C32.1148825,30.4804178 32.1148825,28.5587467 32.1148825,26.6370757 C32.1148825,24.9660574 32.1148825,23.3002611 32.1148825,21.6292428 C32.1148825,20.8198433 32.1618799,19.9947781 32.1148825,19.1906005 C32.1148825,19.1801567 32.1148825,19.1697128 32.1148825,19.154047 C31.9843342,19.3785901 31.8537859,19.6031332 31.7284595,19.8328982 C33.075718,19.0078329 34.4229765,18.1827676 35.7650131,17.3577023 C37.9060052,16.0469974 40.0522193,14.7310705 42.1932115,13.4203655 C42.6840731,13.1227154 43.1697128,12.8198433 43.6605744,12.5221932 C44.0208877,12.3028721 44.156658,11.8224543 43.9425587,11.4516971 C43.7336815,11.0913838 43.232376,10.9503916 42.8720627,11.1697128 C41.0182768,12.308094 39.1592689,13.4412533 37.305483,14.5796345 C35.2062663,15.8642298 33.0861619,17.1227154 31.0078329,18.4386423 C30.7467363,18.6057441 30.5639687,18.8250653 30.5483029,19.1592689 C30.5483029,19.1958225 30.5483029,19.2375979 30.5483029,19.2793734 C30.5483029,19.54047 30.5483029,19.7963446 30.5483029,20.0574413 C30.5483029,21.1436031 30.5483029,22.2349869 30.5483029,23.3211488 C30.5483029,26.5117493 30.5483029,29.7075718 30.5483029,32.8981723 C30.5483029,34.9608355 30.5169713,37.0234987 30.5483029,39.0861619 C30.5483029,39.1174935 30.5483029,39.1488251 30.5483029,39.1853786 C30.5483029,39.6083551 30.9086162,39.9686684 31.3315927,39.9686684 C32.6788512,39.9686684 34.0261097,39.9686684 35.3733681,39.9686684 C37.5091384,39.9686684 39.6501305,39.9686684 41.7859008,39.9686684 C42.2767624,39.9686684 42.772846,39.9686684 43.2637076,39.9686684 C43.6866841,39.9686684 44.0469974,39.6083551 44.0469974,39.1853786 C44.0469974,38.2715405 44.0469974,37.3629243 44.0469974,36.4490862 C44.0469974,34.2767624 44.0469974,32.1044386 44.0469974,29.9321149 C44.0469974,27.305483 44.0469974,24.6788512 44.0469974,22.0574413 C44.0469974,19.7754569 44.0469974,17.4882507 44.0469974,15.2062663 C44.0469974,14.1044386 44.078329,12.997389 44.0469974,11.9007833 C44.0469974,11.8851175 44.0469974,11.8694517 44.0469974,11.8537859 C44.0469974,11.4464752 43.6866841,11.0496084 43.2637076,11.0704961 C42.8407311,11.0913838 42.4804178,11.4151436 42.4804178,11.8537859 Z"/><path id="Path" d="M8.09399478,38.4073107 C5.96344648,38.4073107 3.83289817,38.4073107 1.7075718,38.4073107 C1.40992167,38.4073107 1.11227154,38.4073107 0.81462141,38.4073107 C1.07571802,38.6684073 1.33681462,38.9295039 1.59791123,39.1906005 C1.60835509,38.8511749 1.61879896,38.5065274 1.62402089,38.1671018 C1.65013055,37.232376 1.67624021,36.3028721 1.70234987,35.3681462 C1.73890339,33.9947781 1.77545692,32.6214099 1.81201044,31.2428198 C1.85900783,29.5665796 1.90078329,27.8903394 1.94778068,26.2140992 C2,24.3707572 2.04699739,22.5221932 2.09921671,20.6788512 C2.15143603,18.8250653 2.19843342,16.9712794 2.25065274,15.1174935 C2.29765013,13.3890339 2.34464752,11.6605744 2.39164491,9.93211488 C2.43342037,8.46475196 2.46997389,6.99738903 2.51174935,5.53002611 C2.53785901,4.48041775 2.5691906,3.4308094 2.59530026,2.37597911 C2.61096606,1.87989556 2.64229765,1.37859008 2.63707572,0.877284595 C2.63707572,0.856396867 2.63707572,0.835509138 2.63707572,0.809399478 C2.37597911,1.07049608 2.11488251,1.33159269 1.8537859,1.5926893 C3.37336815,1.5926893 4.88772846,1.5926893 6.4073107,1.5926893 C6.62140992,1.5926893 6.83550914,1.5926893 7.04960836,1.5926893 C6.78851175,1.33159269 6.52741514,1.07049608 6.26631854,0.809399478 C6.28198433,1.47258486 6.30287206,2.13577023 6.31853786,2.79895561 C6.36031332,4.36031332 6.40208877,5.92689295 6.44386423,7.48825065 C6.49608355,9.33681462 6.54308094,11.1853786 6.59530026,13.0339426 C6.63707572,14.5274151 6.67885117,16.0208877 6.7154047,17.5143603 C6.7310705,18.0574413 6.74673629,18.6005222 6.75718016,19.1436031 C6.77806789,19.8746736 6.79895561,20.6109661 6.81462141,21.3420366 C6.85639687,22.8981723 6.89817232,24.45953 6.93994778,26.0156658 C6.9921671,27.8642298 7.03916449,29.7075718 7.09138381,31.5561358 C7.13315927,33.1853786 7.18015666,34.8146214 7.22193211,36.4438642 C7.24804178,37.3159269 7.2689295,38.1932115 7.29503916,39.0652742 C7.29503916,39.1070496 7.29503916,39.1488251 7.3002611,39.1906005 C7.31070496,39.5979112 7.65013055,39.9947781 8.08355091,39.9738903 C8.49608355,39.9530026 8.8772846,39.6292428 8.86684073,39.1906005 C8.85117493,38.5744125 8.83550914,37.9582245 8.81462141,37.3420366 C8.77284595,35.8537859 8.7310705,34.3655352 8.69451697,32.8825065 C8.64229765,31.0339426 8.59530026,29.1853786 8.54308094,27.3368146 C8.49608355,25.6657963 8.45430809,23.9947781 8.4073107,22.3237598 C8.38120104,21.3368146 8.35509138,20.3550914 8.32898172,19.3681462 C8.31853786,18.9921671 8.30809399,18.6214099 8.29765013,18.2454308 C8.26109661,16.924282 8.22454308,15.6031332 8.18798956,14.2872063 C8.14099217,12.4751958 8.08877285,10.6631854 8.04177546,8.845953 C7.99477807,7.14882507 7.94778068,5.45691906 7.90078329,3.75979112 C7.87467363,2.81984334 7.84856397,1.88511749 7.82245431,0.945169713 C7.82245431,0.898172324 7.82245431,0.856396867 7.81723238,0.809399478 C7.80678851,0.386422977 7.46736292,0.0261096606 7.03394256,0.0261096606 C5.51436031,0.0261096606 4,0.0261096606 2.48041775,0.0261096606 C2.26631854,0.0261096606 2.05221932,0.0261096606 1.8381201,0.0261096606 C1.40469974,0.0261096606 1.06527415,0.386422977 1.05483029,0.809399478 C1.04438642,1.14882507 1.03394256,1.49347258 1.02872063,1.83289817 C1.00261097,2.76762402 0.976501305,3.69712794 0.950391645,4.63185379 C0.91383812,6.00522193 0.877284595,7.37859008 0.84073107,8.75718016 C0.793733681,10.4334204 0.751958225,12.1096606 0.704960836,13.7859008 C0.652741514,15.6292428 0.605744125,17.4778068 0.553524804,19.3211488 C0.501305483,21.1749347 0.454308094,23.0287206 0.402088773,24.8825065 C0.355091384,26.6109661 0.308093995,28.3394256 0.261096606,30.0678851 C0.219321149,31.535248 0.182767624,33.002611 0.140992167,34.4699739 C0.114882507,35.5195822 0.0835509138,36.5691906 0.0574412533,37.6240209 C0.0417754569,38.1201044 0.0156657963,38.6214099 0.0156657963,39.1227154 C0.0156657963,39.1436031 0.0156657963,39.1644909 0.0156657963,39.1906005 C0.00522193211,39.613577 0.386422977,39.9738903 0.798955614,39.9738903 C2.92950392,39.9738903 5.06005222,39.9738903 7.18537859,39.9738903 C7.48302872,39.9738903 7.78067885,39.9738903 8.07832898,39.9738903 C8.48563969,39.9738903 8.88250653,39.613577 8.8616188,39.1906005 C8.85639687,38.767624 8.53263708,38.4073107 8.09399478,38.4073107 Z"/><path id="Path" d="M35.770235,24.8668407 C36.8407311,24.8668407 37.9112272,24.8668407 38.9817232,24.8668407 C39.3890339,24.8668407 39.7859008,24.5065274 39.7650131,24.0835509 C39.7441253,23.6605744 39.4203655,23.3002611 38.9817232,23.3002611 C37.9112272,23.3002611 36.8407311,23.3002611 35.770235,23.3002611 C35.3629243,23.3002611 34.9660574,23.6605744 34.9869452,24.0835509 C35.0078329,24.5065274 35.3315927,24.8668407 35.770235,24.8668407 L35.770235,24.8668407 Z"/><path id="Path" d="M23.7597911,24.8668407 C24.8302872,24.8668407 25.9007833,24.8668407 26.9712794,24.8668407 C27.3785901,24.8668407 27.7754569,24.5065274 27.7545692,24.0835509 C27.7336815,23.6605744 27.4099217,23.3002611 26.9712794,23.3002611 C25.9007833,23.3002611 24.8302872,23.3002611 23.7597911,23.3002611 C23.3524804,23.3002611 22.9556136,23.6605744 22.9765013,24.0835509 C22.9921671,24.5065274 23.3211488,24.8668407 23.7597911,24.8668407 L23.7597911,24.8668407 Z"/><path id="Path" d="M11.9060052,24.8668407 C12.9765013,24.8668407 14.0469974,24.8668407 15.1174935,24.8668407 C15.5248042,24.8668407 15.921671,24.5065274 15.9007833,24.0835509 C15.8798956,23.6605744 15.5561358,23.3002611 15.1174935,23.3002611 C14.0469974,23.3002611 12.9765013,23.3002611 11.9060052,23.3002611 C11.4986945,23.3002611 11.1018277,23.6605744 11.1227154,24.0835509 C11.1436031,24.5065274 11.4673629,24.8668407 11.9060052,24.8668407 L11.9060052,24.8668407 Z"/></g></g></g></g></svg>